<?xml version="1.0" encoding="UTF-8"?>
<svg width="100pt" height="100pt" version="1.1" viewBox="0 0 100 100" xmlns="http://www.w3.org/2000/svg">
 <g>
  <path d="m93.574 31.023-10.473-6.7773c0.67188-2.2734 0.40625-4.6836-1.1133-6.2031s-3.9336-1.7852-6.2031-1.1133l-6.7773-10.473c-1.3164-2.0352-4.1758-2.3359-5.8906-0.625-1.7148 1.7148-1.4102 4.5703 0.625 5.8867l9.7188 6.2891c-0.52344 0.33594-1.0234 0.70313-1.4648 1.1406-2.7578 2.7578-1.3438 5.3164 1.1094 7.7695s5.0117 3.8672 7.7695 1.1094c0.4375-0.4375 0.80859-0.94141 1.1406-1.4648l6.2891 9.7188c1.3164 2.0352 4.1758 2.3359 5.8906 0.625 1.7148-1.7148 1.4102-4.5703-0.625-5.8906z"/>
  <path d="m36.32 41.121c3.5391-4.3008 7.6562-8.9961 12.465-14.086l-18.973-18.973c-0.61328-0.61328-1.6055-0.61328-2.2188 0l-5.8672 5.8672c-0.47656 0.47656-0.60156 1.1953-0.30078 1.7969 1.6836 3.3945 7.5195 14.816 14.898 25.391z"/>
  <path d="m72.996 51.246c-5 4.7305-9.6992 8.8672-14.078 12.469 10.578 7.375 21.992 13.211 25.387 14.895 0.60156 0.29688 1.3203 0.17578 1.7969-0.30078l5.8672-5.8672c0.61328-0.61328 0.61328-1.6055 0-2.2188l-18.977-18.977z"/>
  <path d="m37.477 78.938c-4.2227 2.4492-7.8242 4.1602-10.773 5.2812l11.137 10.629c0.55469 0.53125 1.4141 0.58203 2.0273 0.12109l4.1875-3.1406c0.60547-0.45312 0.80469-1.2734 0.46484-1.9531-0.95312-1.8984-3.1797-5.9297-7.0391-10.938z"/>
  <path d="m21.078 62.539c-4.8828-3.7617-8.8359-5.9688-10.785-6.957-0.73438-0.375-1.6289-0.11328-2.0547 0.59375l-3.3281 5.5469c-0.37891 0.62891-0.26953 1.4375 0.26172 1.9453l10.473 9.9961c1.3594-3.6953 3.3555-7.5156 4.9805-10.352 0.14062-0.24609 0.30078-0.51562 0.45312-0.77344z"/>
  <path d="m70.879 29.152c-2.4531-2.4531-10.562-9.418-13.32-6.6602-35.52 35.52-42.41 57.488-39.961 59.938 2.4531 2.4531 24.422-4.4414 59.941-39.961 2.7578-2.7578-4.207-10.867-6.6602-13.32zm-37.25 39.469-9.418 9.418c-0.30469 0.30469-0.70703 0.46094-1.1094 0.46094-0.40234 0-0.80469-0.15234-1.1094-0.46094-0.61328-0.61328-0.61328-1.6055 0-2.2188l9.418-9.418c0.61328-0.61328 1.6055-0.61328 2.2188 0 0.61328 0.61328 0.61328 1.6055 0 2.2188zm32.887-25.688-4.6328 4.6328c-0.61328 0.61328-1.6055 0.61328-2.2188 0l-7.1992-7.1992c-0.61328-0.61328-0.61328-1.6055 0-2.2188l4.6328-4.6328c0.36719-0.36719 0.88672-0.53125 1.3984-0.4375 1.1484 0.21875 3.2812 0.90234 5.418 3.0391 2.1367 2.1367 2.8203 4.2734 3.0391 5.418 0.097656 0.51172-0.066406 1.0312-0.4375 1.3984z"/>
 </g>
</svg>
