<?xml version="1.0" encoding="UTF-8"?>
<svg fill="#FFFFFF" width="100pt" height="100pt" version="1.1" viewBox="0 0 100 100" xmlns="http://www.w3.org/2000/svg">
 <path d="m82 45.801h-3.3008v-12.102c0-15.801-12.898-28.699-28.699-28.699s-28.699 12.898-28.699 28.699v12.102h-3.3008c-2.1992 0-4.1016 1.8008-4.1016 4.1016v41c0 2.1992 1.8008 4.1016 4.1016 4.1016l64-0.003906c2.1992 0 4.1016-1.8008 4.1016-4.1016v-41c0-2.1992-1.8008-4.0977-4.1016-4.0977zm-49.102-12.102c0-9.3984 7.6992-17.102 17.102-17.102 9.3984 0 17.102 7.6992 17.102 17.102v12.102h-34.203zm21.301 38.301v8.6992c0 2.3008-1.8984 4.1992-4.1992 4.1992s-4.1992-1.8984-4.1992-4.1992v-8.6992c-1.8984-1.3008-3.1992-3.6016-3.1992-6.1016 0-4.1016 3.3008-7.3984 7.3984-7.3984 4.1016 0 7.3984 3.3008 7.3984 7.3984 0 2.6016-1.2969 4.8008-3.1992 6.1016z"/>
</svg>
