<?xml version="1.0" encoding="UTF-8"?>
<svg fill="#FFFFFF" width="100pt" height="100pt" version="1.1" viewBox="0 0 100 100" xmlns="http://www.w3.org/2000/svg">
 <path d="m66.973 50.605c3.6328-1.1328 5.8438-3.168 5.8438-6.832 0-7.875-10.215-18.09-22.816-18.09s-22.816 10.215-22.816 18.09c0 4.1211 2.8008 6.1836 7.2734 7.2148-0.74219 0.80859-1.6094 1.9883-1.6094 3.9375 0 2.2773 1.1875 3.5078 1.9727 4.3203 0.63672 0.66016 0.80469 0.85547 0.80469 1.4258 0 0.57422-0.16797 0.76953-0.80469 1.4297-0.78516 0.8125-1.9727 2.043-1.9727 4.3203s1.1875 3.5078 1.9727 4.3203c0.63672 0.66016 0.80469 0.85547 0.80469 1.4297h4.1641c0-2.2773-1.1875-3.5078-1.9727-4.3203-0.63672-0.66016-0.80469-0.85547-0.80469-1.4297s0.16797-0.76953 0.80469-1.4297c0.78516-0.8125 1.9727-2.043 1.9727-4.3203s-1.1875-3.5078-1.9727-4.3203c-0.63672-0.66016-0.80469-0.85547-0.80469-1.4258 0-0.57031 0.16797-0.76953 0.80469-1.4297 0.42578-0.44141 0.96875-1.0156 1.375-1.8047 2.9766 0.26172 6.3555 0.3125 9.9453 0.31641-0.12109 0.19922-0.32031 0.41016-0.63281 0.73438-0.78516 0.8125-1.9727 2.043-1.9727 4.3203s1.1875 3.5078 1.9727 4.3203c0.63672 0.66016 0.80469 0.85547 0.80469 1.4258 0 0.57422-0.16797 0.76953-0.80469 1.4297-0.78516 0.8125-1.9727 2.043-1.9727 4.3203s1.1875 3.5078 1.9727 4.3203c0.63672 0.66016 0.80469 0.85547 0.80469 1.4297h4.1641c0-2.2773-1.1875-3.5078-1.9727-4.3203-0.63672-0.66016-0.80469-0.85547-0.80469-1.4297 0-0.57422 0.16797-0.76953 0.80469-1.4297 0.78516-0.8125 1.9727-2.043 1.9727-4.3203s-1.1875-3.5078-1.9727-4.3203c-0.63672-0.66016-0.80078-0.85547-0.80078-1.4258s0.16797-0.76953 0.80469-1.4297c0.70312-0.72656 1.7188-1.793 1.9258-3.6406 2.8203-0.03125 5.4727-0.11719 7.8555-0.34766-0.56641 0.76953-1.0664 1.8008-1.0664 3.2773 0 2.2773 1.1875 3.5078 1.9727 4.3203 0.63672 0.66016 0.80078 0.85547 0.80078 1.4258 0 0.57422-0.16797 0.76953-0.80469 1.4297-0.78516 0.8125-1.9727 2.043-1.9727 4.3203 0 2.2773 1.1875 3.5078 1.9727 4.3203 0.63672 0.66016 0.80469 0.85547 0.80469 1.4297h4.1641c0-2.2773-1.1875-3.5078-1.9727-4.3203-0.63672-0.66016-0.80469-0.85547-0.80469-1.4297s0.16797-0.76953 0.80469-1.4297c0.78516-0.8125 1.9727-2.043 1.9727-4.3203 0-2.2773-1.1875-3.5078-1.9727-4.3203-0.63672-0.66016-0.80469-0.85547-0.80469-1.4258s0.16797-0.76953 0.80469-1.4297c0.59766-0.61719 1.4336-1.4883 1.7891-2.8867zm-7.832-12.844c-1.9453-1.3906-5.1094-3.0508-9.1406-3.0508v-4.1641c5.1328 0 9.1211 2.082 11.562 3.8281zm4.6523 5.9648c-0.027344-0.64062-0.55078-1.9453-1.9336-3.5234l3.1328-2.7422c1.8281 2.0859 2.8789 4.2461 2.9609 6.0781z"/>
</svg>
