<?xml version="1.0" encoding="UTF-8"?>
<svg fill="#FFFFFF" width="100pt" height="100pt" version="1.1" viewBox="0 0 100 100" xmlns="http://www.w3.org/2000/svg">
 <path d="m91.668 64.742c-0.76953 1.1836-1.9531 1.1836-3.1367 1.0938-3.5781-0.23438-7.0703 0.17969-10.531 1.0078-5 1.1836-9.6445 3.2227-14.172 5.6211-5.7383 3.0156-11.387 6.2383-17.215 9.082-6.332 3.1328-13.047 5.0273-20.207 4.7305-2.9844-0.11719-4.6133-1.3008-5.3828-4.1719-4.1719-15.352-8.3125-30.734-12.484-46.086-0.62109-2.2812 0-3.1953 2.3672-3.0469 9.1406 0.55859 17.305-2.457 25.203-6.6289 5.7422-3.0156 11.391-6.2109 17.219-9.082 6.332-3.1328 13.016-5 20.203-4.7617 3.2852 0.11719 4.5586 1.0352 5.4141 4.1992 3.9062 14.438 7.8086 28.844 11.715 43.281 0.29688 1.0938 0.67969 2.1602 1.0078 3.2227zm-53.133-1.0938c0.32812 1.3008 0.59375 2.6016 0.94922 3.9023 0.82812 3.1367 1.6836 6.2422 2.6016 9.6172 4.6445-2.4844 9.1719-4.9102 13.668-7.3359-1.2148-4.4961-2.3945-8.8164-3.6094-13.227-2.1875 1.2422-4.1719 2.457-6.2109 3.5234-2.457 1.2695-4.9727 2.3945-7.457 3.5781-0.67969-2.3672-1.3906-4.7617-2.0391-7.1289-0.67969-2.4258-1.332-4.8516-2.043-7.4258-4.8203 1.9219-9.6445 3.0195-14.82 3.2539 1.332 4.9688 2.6641 9.793 3.9922 14.762 1.8047-0.20703 3.6094-0.20703 5.2969-0.62109 3.2539-0.82812 6.418-1.8945 9.6445-2.8398zm23.578-29.316c-4.6719 2.4844-9.2578 4.8789-13.812 7.3047 1.3594 5.0312 2.6602 9.8828 3.9922 14.703 4.6719-2.4844 9.2305-4.8789 13.816-7.3047-1.3047-4.7656-2.6055-9.5859-3.9961-14.703zm-27.57 14.91c4.4688-2.457 8.8164-4.793 13.105-7.2188 0.29687-0.14844 0.44531-0.91797 0.35547-1.332-0.65234-2.5742-1.3633-5.1172-2.0703-7.6602-0.38672-1.3906-0.76953-2.7812-1.125-4.082-4.4688 2.3359-8.8164 4.582-13.105 6.8906-0.26562 0.14844-0.5625 0.73828-0.47266 1.0664 1.0352 4.0234 2.1602 8.0469 3.3438 12.363zm49.227 9.8203c-1.0352-3.875-2.1328-7.9883-3.2852-12.07-0.058594-0.26563-0.50391-0.62109-0.73828-0.58984-4.6172 0.14844-9.0547 1.1836-13.461 2.8398 1.1836 4.3789 2.3672 8.6953 3.4609 12.719 4.793-1.0039 9.3789-1.9531 14.023-2.8984zm-21.656-24.996c4.8242-1.0078 9.4375-1.9531 14.109-2.9297-1.0938-4.0234-2.2461-8.2812-3.3984-12.543-4.9414 0.20703-9.5859 1.1836-14.113 2.957 1.1836 4.3203 2.3086 8.5195 3.4023 12.516z"/>
</svg>
