<svg width="101" height="101" viewBox="0 0 101 101" fill="none" xmlns="http://www.w3.org/2000/svg">
<path d="M48.2441 32.0967C48.2441 33.5235 47.2259 34.7249 45.8866 35.217C39.6629 37.5036 35.2227 43.4833 35.2227 50.5C35.2227 57.5167 39.663 63.4956 45.8867 65.7821C47.2259 66.2741 48.2441 67.4755 48.2441 68.9023V90.7715C48.2441 92.5153 46.7575 93.9009 45.0326 93.6445C24.0078 90.5199 7.87793 72.3942 7.87793 50.5C7.87793 28.6058 24.0078 10.4801 45.0326 7.35547C46.7575 7.09912 48.2441 8.48472 48.2441 10.2285V32.0967ZM56.0576 10.4418C56.0576 8.66245 57.6025 7.26576 59.3532 7.58403C79.6968 11.2824 95.1221 29.0893 95.1221 50.5C95.1221 71.9106 79.6968 89.7167 59.3532 93.415C57.6025 93.7333 56.0576 92.3366 56.0576 90.5572V68.3801C56.0576 67.0462 56.9521 65.8983 58.1687 65.3512C63.8329 62.8042 67.7773 57.1131 67.7773 50.5C67.7773 43.8868 63.833 38.1949 58.1687 35.6478C56.9522 35.1008 56.0576 33.9528 56.0576 32.6189V10.4418Z" fill="white"/>
</svg>
