<?xml version="1.0" encoding="UTF-8"?>
<svg fill="#FFFFFF" width="100pt" height="100pt" version="1.1" viewBox="0 0 100 100" xmlns="http://www.w3.org/2000/svg">
 <path d="m89.762 31.793c-0.42969-0.91406-0.36328-1.9805 0.17188-2.8359 1.2227-1.9258 2.168-4.0156 2.8125-6.1992 1.3555-4.6523 1.3555-9.5938 0-14.246-0.30078-1.043-1.1172-1.8555-2.1641-2.1445-1.0469-0.29297-2.168-0.019532-2.9648 0.71875-2.5273 2.3438-5.4141 4.2695-8.5547 5.6953-0.85156 0.38672-1.6758 0.71094-2.5 0.99219-0.84766 0.30859-1.7852 0.20312-2.543-0.28125-7.125-4.7227-15.488-7.2422-24.035-7.2422s-16.91 2.5195-24.035 7.2422c-0.75781 0.48437-1.7031 0.58984-2.5508 0.28125-0.80469-0.27734-1.6289-0.60156-2.4766-0.99219h-0.003906c-3.1289-1.4297-6.0117-3.3516-8.5312-5.6953-0.79688-0.73828-1.918-1.0117-2.9609-0.71875-1.0469 0.28906-1.8672 1.1016-2.168 2.1445-1.3516 4.6523-1.3516 9.5898 0 14.242 0.64844 2.1875 1.5938 4.2773 2.8125 6.207 0.53516 0.84375 0.60156 1.9023 0.17969 2.8125-5.875 12.762-5.2539 27.574 1.668 39.801 6.9219 12.23 19.301 20.383 33.266 21.918 1.625 0.17187 3.2539 0.25781 4.8867 0.25781 10.777 0.03125 21.176-3.9648 29.16-11.203 9.2344-8.3008 14.512-20.129 14.52-32.547 0.007812-6.2852-1.3516-12.5-3.9883-18.207zm-60.246 5.1836c-0.69141-0.46094-1.168-1.1758-1.332-1.9883-0.16016-0.8125 0.007812-1.6562 0.46484-2.3477 0.96094-1.4375 2.8984-1.8242 4.3359-0.86719l7.1875 4.793v0.003906c2.3359 1.6172 3.6875 4.3164 3.5781 7.1562v0.023438c0 2.0859-1.0391 4.0352-2.7734 5.1953-1.7344 1.1602-3.9297 1.3789-5.8594 0.58203-1.9297-0.79297-3.332-2.5-3.7461-4.543-0.41016-2.0469 0.22656-4.1602 1.6992-5.6406zm37.5 34.57c-0.74219 0.37109-1.6016 0.43359-2.3867 0.16797-0.78516-0.26172-1.4375-0.82422-1.8086-1.5664-0.0625-0.11719-2.6992-4.5234-12.82-4.5234s-12.758 4.4062-12.867 4.5977c-0.83984 1.4766-2.6992 2.0312-4.2109 1.25-1.4922-0.77734-2.0898-2.6055-1.3438-4.1133 0.41016-0.82422 4.3984-7.9844 18.422-7.9844s18.012 7.1602 18.438 7.9766c0.375 0.74609 0.4375 1.6094 0.17188 2.4023-0.26953 0.78906-0.83984 1.4414-1.5859 1.8086zm3.4609-34.57-3.5547 2.3672h0.003906c1.4727 1.4766 2.1133 3.5938 1.7031 5.6406s-1.8164 3.7539-3.7461 4.5508c-1.9258 0.79688-4.1289 0.57812-5.8633-0.58594-1.7305-1.1602-2.7734-3.1133-2.7695-5.1992v-0.023438c-0.11328-2.8398 1.2383-5.543 3.5742-7.1641l7.1875-4.793c1.4375-0.95703 3.3789-0.57031 4.3359 0.86328 0.95703 1.4375 0.57031 3.3789-0.86719 4.3359z"/>
</svg>
