<?xml version="1.0" encoding="UTF-8"?>
<svg fill="#FFFFFF" width="100pt" height="100pt" version="1.1" viewBox="0 0 100 100" xmlns="http://www.w3.org/2000/svg">
 <path d="m50 83.332 3.168-12.5c-13.586-0.875-25.711-6.6641-29.211-14.25-0.375 2-0.91406 3.8359-1.75 5.2109-2.75 4.875-8.332 4.875-13.875 4.875 4.5859 0 6.25-6.543 6.25-14.586 0-8.0391-1.6641-14.582-6.25-14.582 5.543 0 11.125 0 13.875 4.875 0.83594 1.375 1.375 3.207 1.75 5.207 2.7109-5.9141 10.711-10.707 20.461-12.914l-6.918-13.836c8.332 0 16.668 0 22.207 2.793 4.7109 2.332 7.418 6.668 9.8359 11.293 12.164 2.9141 22.125 9.5 22.125 17.164 0 7.8359-10.418 14.586-22.918 17.336-3.457 4.582-6.832 8.832-9.707 11.125-3.5 2.7891-6.25 2.7891-9.043 2.7891m20.832-37.5c-2.3008 0-4.1641 1.8672-4.1641 4.168 0 1.1055 0.4375 2.1641 1.2188 2.9453s1.8398 1.2227 2.9453 1.2227 2.168-0.44141 2.9492-1.2227 1.2188-1.8398 1.2188-2.9453-0.4375-2.1641-1.2188-2.9453-1.8438-1.2227-2.9492-1.2227z"/>
</svg>
