<svg width="85" height="112" viewBox="0 0 85 112" fill="none" xmlns="http://www.w3.org/2000/svg">
<path d="M42.1304 0C30.9585 0 20.2397 4.43747 12.3437 12.3385C4.44267 20.2396 0 30.9585 0 42.1305V111.937H84.26V42.1305C84.26 30.9587 79.8173 20.2399 71.9163 12.3385C64.0204 4.43747 53.3024 0 42.1304 0ZM74.9277 108.156H9.3344V43.64C9.32919 40.3588 9.81877 37.0984 10.7875 33.9629C13.2197 26.1296 18.4905 19.4896 25.5635 15.3429C32.5843 14.4002 39.6888 16.4002 45.1835 20.8741C49.6523 24.4835 53.3085 29.0044 55.9023 34.1293L56.9596 36.1553L57.8762 38.3272C58.1679 39.0564 58.5221 39.7335 58.7721 40.5043L59.5377 42.7855H59.5325C60.0429 44.2907 60.4752 45.8167 60.8294 47.3636C61.0325 48.124 61.121 48.9365 61.2773 49.7125C61.444 50.4938 61.5742 51.2855 61.6575 52.0771C62.0638 55.2645 62.1888 58.4781 62.0221 61.6864C61.8242 64.8323 61.3606 67.952 60.6366 71.0145C59.3554 76.5667 56.8449 81.7593 53.2981 86.2172C52.496 87.1808 51.6314 88.0921 50.7148 88.9412C50.272 89.3631 49.7825 89.686 49.3241 90.0714V90.0766C48.8918 90.4568 48.423 90.7954 47.9282 91.087C46.2094 92.2641 44.22 92.9829 42.147 93.1808C37.8918 93.5141 33.72 91.8527 30.8658 88.6756C29.1418 86.8892 27.7095 84.8474 26.621 82.613C26.0273 81.3995 25.5064 80.1546 25.0533 78.8786L24.5064 76.9984C24.3814 76.3473 24.2095 75.7119 24.0949 75.0505L24.1002 75.0557C23.1627 69.7432 23.7981 64.2797 25.9283 59.3264C26.871 57.1649 28.2512 55.217 29.9699 53.6076C30.6886 52.9149 31.5115 52.342 32.4022 51.8993C33.199 51.4931 34.074 51.2535 34.9699 51.1962C38.5011 50.8941 42.1835 53.5869 44.1158 58.2691H44.121C45.1106 60.5503 45.548 63.0347 45.4022 65.5191C45.272 68.0191 44.5481 70.4462 43.2877 72.6077C42.7044 73.54 41.9752 74.3681 41.1314 75.0661C40.4231 75.639 39.5793 76.0088 38.6784 76.1338C36.668 76.264 34.7513 75.264 33.7044 73.54C32.1836 71.4255 31.5065 68.816 31.7981 66.2275C31.9335 63.6546 33.2252 61.2796 35.3085 59.7744C37.1418 58.7328 39.5949 59.7432 40.8501 62.5244C41.5428 64.0036 41.7876 65.6495 41.5532 67.2692C41.3865 68.9099 40.6678 70.4463 39.5168 71.6286C40.9543 70.7223 41.9595 69.2744 42.3137 67.6078C42.8502 65.5766 42.8085 63.4359 42.1887 61.4255C41.6783 59.6026 40.6262 57.9776 39.1627 56.7692C37.8971 55.738 36.2201 55.363 34.6367 55.7588C31.4961 56.6286 28.9441 60.2536 27.9909 64.8421H27.9857C27.043 69.4776 27.7617 74.29 30.0169 78.4461C32.069 82.2065 35.2877 84.5712 38.6731 84.7743C40.4283 84.8732 42.1731 84.4305 43.6731 83.5087C45.2929 82.5139 46.7147 81.2275 47.871 79.7169C50.5533 75.9929 52.2095 71.6336 52.6731 67.0659C53.2721 62.1596 52.72 57.1804 51.0638 52.5299C49.7305 48.5299 47.4387 44.9205 44.3919 42.0143C41.8086 39.582 38.4231 38.1705 34.8763 38.0455C33.1681 38.0142 31.4649 38.3267 29.8763 38.9621C28.2045 39.6392 26.6523 40.5872 25.2878 41.7643C22.2514 44.3632 19.793 47.5716 18.0742 51.1809C14.1315 59.7435 12.8502 69.2903 14.3919 78.5876C14.569 79.7647 14.8555 80.9001 15.0951 82.0564C15.3815 83.1814 15.7201 84.2804 16.043 85.3845C16.7253 87.4053 17.5326 89.3793 18.4596 91.3012C20.1575 94.8637 22.4127 98.1293 25.1419 100.978C30.3242 106.223 36.7356 108.635 42.9752 107.832C46.2252 107.39 49.3138 106.155 51.9804 104.239C52.694 103.775 53.3711 103.259 54.0012 102.692C54.6471 102.129 55.3138 101.624 55.9387 101.009C57.2252 99.7491 58.4179 98.4001 59.5064 96.9679C64.3086 90.4939 67.5898 83.0252 69.095 75.1039C69.9387 70.8695 70.4023 66.5623 70.4804 62.2445C70.5065 57.9372 70.1367 53.6404 69.3815 49.4008C69.2356 48.3435 68.97 47.3383 68.7356 46.3175C68.4804 45.3122 68.2773 44.2759 67.9648 43.3071L67.9596 43.3123C67.3971 41.3956 66.7357 39.5153 65.9752 37.6716L64.8763 35.0101C64.5169 34.1195 64.0481 33.3279 63.6367 32.4893L62.3554 30.0205L60.9179 27.7497L60.9127 27.7445C57.5169 22.1768 52.8034 17.5309 47.1887 14.2179C44.3138 12.6605 41.1887 11.6085 37.9491 11.1189C39.3398 10.9366 40.7355 10.8481 42.1314 10.8429C50.8293 10.8429 59.1674 14.3013 65.3194 20.4522C71.4705 26.5981 74.9287 34.9415 74.9287 43.6402L74.9277 108.156Z" fill="white"/>
</svg>
