<?xml version="1.0" encoding="UTF-8"?>
<svg width="100pt" height="100pt" version="1.1" viewBox="0 0 100 100" xmlns="http://www.w3.org/2000/svg">
 <g>
  <path d="m90.625 86.812c-1.8203 0.035156-3.5898-0.62891-4.9414-1.8516-5.0195-4.0312-12.168-4.0312-17.188 0-2.8281 2.4727-7.0469 2.4727-9.875 0-5.0195-4.0312-12.168-4.0312-17.188 0-2.8398 2.4688-7.0586 2.4688-9.8984 0-2.418-1.9922-5.4688-3.0664-8.6055-3.0234-3.1328-0.042969-6.1797 1.0312-8.5977 3.0234-1.3594 1.2266-3.1289 1.8867-4.957 1.8516-1.7266 0-3.125 1.3984-3.125 3.125s1.3984 3.125 3.125 3.125c3.1367 0.042969 6.1836-1.0312 8.6016-3.0234 1.3555-1.2227 3.125-1.8867 4.9531-1.8516 1.8242-0.035156 3.5938 0.625 4.9531 1.8516 5.0234 4.0195 12.164 4.0195 17.188 0 2.832-2.4688 7.0508-2.4688 9.8828 0 5.0195 4.0312 12.168 4.0312 17.188 0 2.8281-2.4727 7.0469-2.4727 9.875 0 2.4219 1.9961 5.4727 3.0703 8.6094 3.0234 1.7266 0 3.125-1.3984 3.125-3.125s-1.3984-3.125-3.125-3.125z"/>
  <path d="m50 38.094c2.1914-0.003906 4.375 0.32031 6.4688 0.96875l24.781 7.625v-12.312c-0.015625-5.1719-4.2031-9.3594-9.375-9.375h-43.75c-5.1719 0.015625-9.3594 4.2031-9.375 9.375v12.312l24.812-7.625c2.0859-0.64844 4.2539-0.97656 6.4375-0.96875z"/>
  <path d="m62.5 15.625c-0.015625-5.1719-4.2031-9.3594-9.375-9.375h-6.25c-5.1719 0.015625-9.3594 4.2031-9.375 9.375v3.125h25z"/>
  <path d="m13.125 78.312c2.957-1.7812 6.3594-2.6914 9.8125-2.625 4.4492-0.054688 8.7773 1.4375 12.25 4.2188 0.30078 0.25 0.625 0.46875 0.96875 0.65625h0.3125c0.13672 0.003906 0.27344-0.007812 0.40625-0.03125 0.25-0.125 0.53125-0.375 0.90625-0.625 2.6406-2.082 5.7734-3.4492 9.0938-3.9688v-31.25c-0.49219 0.10156-0.98438 0.19141-1.4688 0.33984l-30.594 9.4102c-2.4727 0.75781-4.5195 2.5039-5.6641 4.8203-1.1406 2.3203-1.2734 5.0078-0.36719 7.4297z"/>
  <path d="m53.125 44.688v31.25c3.3359 0.51562 6.4883 1.8711 9.1562 3.9453 0.30859 0.26172 0.64453 0.49219 1 0.6875h0.3125c0.11719 0.003907 0.23047-0.003906 0.34375-0.03125 0.25-0.125 0.53125-0.375 0.90625-0.625 3.4727-2.7812 7.8008-4.2734 12.25-4.2188 3.4375-0.074218 6.8281 0.82813 9.7812 2.5938l4.3438-11.594c0.90625-2.4219 0.77344-5.1094-0.36719-7.4297-1.1445-2.3203-3.1914-4.0625-5.6641-4.8203l-30.594-9.4062c-0.48438-0.15625-0.97656-0.24609-1.4688-0.35156z"/>
 </g>
</svg>
