<?xml version="1.0" encoding="UTF-8"?>
<svg width="100pt" height="100pt" version="1.1" viewBox="0 0 100 100" xmlns="http://www.w3.org/2000/svg">
 <path d="m41.906 65.625h16.156l15.625-15.625-15.625-15.625h-16.156l-15.625 15.625zm8.0938-25 9.375 9.375-9.375 9.375-9.375-9.375zm16.906 25 8.0938-8.0938v8.0938zm-33.812-31.25-8.0938 8.0938v-8.0938zm41.906 8.0938-8.0938-8.0938h8.0938zm18.75-11.219c0-0.82812-0.32812-1.625-0.91406-2.2109-0.58594-0.58594-1.3828-0.91406-2.2109-0.91406v-6.25c1.2656 0 2.4023-0.76172 2.8867-1.9297 0.48438-1.168 0.21484-2.5117-0.67578-3.4062-0.89453-0.89062-2.2383-1.1602-3.4062-0.67578-1.168 0.48438-1.9297 1.6211-1.9297 2.8867h-75c0-1.2656-0.76172-2.4023-1.9297-2.8867-1.168-0.48438-2.5117-0.21484-3.4062 0.67578-0.89062 0.89453-1.1602 2.2383-0.67578 3.4062 0.48438 1.168 1.6211 1.9297 2.8867 1.9297v6.25c-1.7266 0-3.125 1.3984-3.125 3.125s1.3984 3.125 3.125 3.125v6.25c-1.7266 0-3.125 1.3984-3.125 3.125s1.3984 3.125 3.125 3.125v6.25c-1.7266 0-3.125 1.3984-3.125 3.125s1.3984 3.125 3.125 3.125v6.25c-1.7266 0-3.125 1.3984-3.125 3.125s1.3984 3.125 3.125 3.125v6.25c-1.2656 0-2.4023 0.76172-2.8867 1.9297-0.48438 1.168-0.21484 2.5117 0.67578 3.4062 0.89453 0.89062 2.2383 1.1602 3.4062 0.67578 1.168-0.48438 1.9297-1.6211 1.9297-2.8867h75c0 1.2656 0.76172 2.4023 1.9297 2.8867 1.168 0.48438 2.5117 0.21484 3.4062-0.67578 0.89062-0.89453 1.1602-2.2383 0.67578-3.4062-0.48438-1.168-1.6211-1.9297-2.8867-1.9297v-6.25c1.7266 0 3.125-1.3984 3.125-3.125s-1.3984-3.125-3.125-3.125v-6.25c1.7266 0 3.125-1.3984 3.125-3.125s-1.3984-3.125-3.125-3.125v-6.25c1.7266 0 3.125-1.3984 3.125-3.125s-1.3984-3.125-3.125-3.125v-6.25c0.82812 0 1.625-0.32812 2.2109-0.91406 0.58594-0.58594 0.91406-1.3828 0.91406-2.2109zm-12.5 40.625h-62.5v-43.75h62.5zm-48.156-6.25h-8.0938v-8.0938z"/>
</svg>
